<?xml version="1.0" encoding="iso-8859-1"?>
<!-- Generator: Adobe Illustrator 19.0.0, SVG Export Plug-In . SVG Version: 6.00 Build 0)  -->
<svg version="1.1" id="Capa_1" xmlns="http://www.w3.org/2000/svg" xmlns:xlink="http://www.w3.org/1999/xlink" x="0px" y="0px"
	 viewBox="0 0 512 512" style="enable-background:new 0 0 512 512;" xml:space="preserve">
<path style="fill:#FFBA40;" d="M431.205,122.91c8.916-59.517-26.293-114.123-78.642-121.966S250.548,34.992,241.631,94.508
	c-8.917,59.517,24.798,124.099,77.147,131.943C371.127,234.294,422.288,182.428,431.205,122.91z"/>
<path style="fill:#3A444A;" d="M373.863,315.927c-4.067-1.069-8.228,1.36-9.298,5.426c-0.251,0.952-24.698,91.259-100.953,165.605
	V360.85c0-4.205-3.408-7.612-7.612-7.612c-4.204,0-7.612,3.407-7.612,7.612v126.116c-76.04-74.155-100.648-164.467-100.954-165.614
	c-1.069-4.065-5.234-6.493-9.298-5.425c-4.066,1.07-6.495,5.232-5.426,9.298c0.283,1.079,7.15,26.813,25.164,62.572
	c16.587,32.926,46.184,80.855,93.002,122.252c0.008,0.007,0.015,0.014,0.023,0.021c1.457,1.268,3.277,1.964,5.217,1.928
	c1.781-0.032,3.538-0.678,4.888-1.847c0.011-0.01,0.024-0.018,0.036-0.028c46.865-41.413,76.487-89.38,93.083-122.326
	c18.014-35.759,24.881-61.495,25.164-62.572C380.357,321.159,377.928,316.996,373.863,315.927z"/>
<path style="fill:#FFE17C;" d="M80.794,122.91C71.878,63.393,107.087,8.787,159.437,0.944S261.452,34.991,270.37,94.508
	s-24.798,124.099-77.147,131.943C140.874,234.294,89.711,182.428,80.794,122.91z"/>
<path style="fill:#FFBA40;" d="M111.242,122.91c-8.768-58.528,25.135-112.304,76.047-121.535
	c-9.048-1.635-18.406-1.847-27.852-0.431C107.088,8.787,71.878,63.393,80.795,122.91c8.916,59.517,60.077,111.384,112.427,103.541
	c1.522-0.228,3.027-0.508,4.516-0.831C155.414,216.751,118.67,172.489,111.242,122.91z"/>
<path style="fill:#F79E02;" d="M400.757,122.91c8.768-58.528-25.135-112.304-76.046-121.535c9.048-1.635,18.406-1.847,27.852-0.431
	c52.349,7.843,87.559,62.449,78.642,121.966c-8.917,59.517-60.078,111.384-112.427,103.541c-1.522-0.228-3.027-0.508-4.516-0.831
	C356.587,216.751,393.33,172.489,400.757,122.91z"/>
<g>
	<path style="fill:#F0484A;" d="M166.299,339.316c12.986-4.104-15.596-20.362-15.596-20.362l-21.819,6.896
		c0,0-14.047,29.731-1.061,25.627L166.299,339.316z"/>
	<path style="fill:#F0484A;" d="M345.701,339.316c-12.986-4.104,15.596-20.362,15.596-20.362l21.819,6.896
		c0,0,14.047,29.731,1.061,25.627L345.701,339.316z"/>
</g>
<path style="fill:#FD6064;" d="M12.804,238.654C-5.333,181.271,20.88,121.82,71.352,105.867s106.091,17.633,124.229,75.016
	s-5.036,126.453-55.508,142.406S30.941,296.037,12.804,238.654z"/>
<path style="fill:#F0484A;" d="M43.252,228.504c-16.108-50.962,2.768-103.551,42.547-125.857c-4.837,0.644-9.665,1.709-14.446,3.22
	C20.88,121.82-5.334,181.271,12.804,238.654c18.137,57.383,76.797,100.588,127.269,84.635c5.581-1.764,10.826-4.18,15.721-7.155
	C109.153,320.658,59.647,280.376,43.252,228.504z"/>
<path style="fill:#FD6064;" d="M499.195,238.654c18.137-57.383-8.076-116.833-58.548-132.786s-106.091,17.633-124.229,75.016
	s5.036,126.453,55.508,142.406S481.059,296.037,499.195,238.654z"/>
<path style="fill:#FAA0C2;" d="M276.176,384.036c13.619,0-8.734-24.116-8.734-24.116h-22.883c0,0-22.354,24.116-8.734,24.116
	H276.176z"/>
<path style="fill:#FBBED5;" d="M160.154,241.794c0-60.181,42.911-108.968,95.845-108.968s95.845,48.787,95.845,108.968
	S308.933,360.85,255.999,360.85S160.154,301.976,160.154,241.794z"/>
<path style="fill:#FAA0C2;" d="M190.602,251.944c0-60.181,42.911-108.968,95.845-108.968c3.864,0,7.673,0.268,11.418,0.773
	c-12.65-6.995-26.854-10.923-41.866-10.923c-52.934,0-95.845,48.787-95.845,108.968c0,57.283,38.878,113.378,88.27,118.649
	C214.407,340.854,190.602,296.764,190.602,251.944z"/>
<g>
	<path style="fill:#3A444A;" d="M209.643,284.652c-4.204,0-7.612-3.408-7.612-7.612v-8.389c0-4.204,3.408-7.612,7.612-7.612
		c4.204,0,7.612,3.408,7.612,7.612v8.389C217.255,281.244,213.847,284.652,209.643,284.652z"/>
	<path style="fill:#3A444A;" d="M302.356,284.652c-4.204,0-7.612-3.408-7.612-7.612v-8.389c0-4.204,3.408-7.612,7.612-7.612
		s7.612,3.408,7.612,7.612v8.389C309.968,281.244,306.56,284.652,302.356,284.652z"/>
	<path style="fill:#3A444A;" d="M256,289.131c-6.656,0-12.915-2.793-17.173-7.665c-2.767-3.166-2.444-7.974,0.722-10.741
		c3.166-2.767,7.974-2.444,10.741,0.722c1.366,1.563,3.448,2.46,5.71,2.46c2.262,0,4.344-0.896,5.71-2.459
		c2.767-3.165,7.575-3.488,10.741-0.722c3.166,2.767,3.489,7.575,0.722,10.741C268.915,286.337,262.656,289.131,256,289.131z"/>
</g>
<path style="fill:#F0484A;" d="M468.749,228.504c16.108-50.962-2.768-103.551-42.547-125.857c4.837,0.644,9.665,1.709,14.447,3.22
	c50.472,15.953,76.686,75.403,58.548,132.786c-18.137,57.383-76.797,100.588-127.269,84.635c-5.581-1.764-10.826-4.18-15.721-7.155
	C402.846,320.658,452.353,280.376,468.749,228.504z"/>
<g>
</g>
<g>
</g>
<g>
</g>
<g>
</g>
<g>
</g>
<g>
</g>
<g>
</g>
<g>
</g>
<g>
</g>
<g>
</g>
<g>
</g>
<g>
</g>
<g>
</g>
<g>
</g>
<g>
</g>
</svg>
